<?xml version="1.0" encoding="UTF-8" standalone="no"?>
<!-- Created with Inkscape (http://www.inkscape.org/) -->

<svg
   xmlns:dc="http://purl.org/dc/elements/1.1/"
   xmlns:cc="http://creativecommons.org/ns#"
   xmlns:rdf="http://www.w3.org/1999/02/22-rdf-syntax-ns#"
   xmlns:svg="http://www.w3.org/2000/svg"
   xmlns="http://www.w3.org/2000/svg"
   xmlns:sodipodi="http://sodipodi.sourceforge.net/DTD/sodipodi-0.dtd"
   xmlns:inkscape="http://www.inkscape.org/namespaces/inkscape"
   width="71.86232mm"
   height="77.442558mm"
   viewBox="0 0 71.86232 77.442558"
   version="1.1"
   id="svg197"
   inkscape:version="0.92.3 (2405546, 2018-03-11)"
   sodipodi:docname="Stressed cartoon mouse.svg"
   fill="currentColor"
   >
  <title
     id="title214">Stressed cartoon mouse</title>
  <defs
     id="defs191" />
  <sodipodi:namedview
     id="base"
     pagecolor="#ffffff"
     bordercolor="#666666"
     borderopacity="1.0"
     inkscape:pageopacity="0.0"
     inkscape:pageshadow="2"
     inkscape:zoom="0.24748737"
     inkscape:cx="2720.3221"
     inkscape:cy="-667.64247"
     inkscape:document-units="mm"
     inkscape:current-layer="layer1"
     showgrid="false"
     fit-margin-top="0"
     fit-margin-left="0"
     fit-margin-right="0"
     fit-margin-bottom="0"
     inkscape:window-width="1920"
     inkscape:window-height="1017"
     inkscape:window-x="3832"
     inkscape:window-y="-8"
     inkscape:window-maximized="1" />
  <metadata
     id="metadata194">
    <rdf:RDF>
      <cc:Work
         rdf:about="">
        <dc:format>image/svg+xml</dc:format>
        <dc:type
           rdf:resource="http://purl.org/dc/dcmitype/StillImage" />
        <dc:title>Stressed cartoon mouse</dc:title>
        <cc:license
           rdf:resource="http://creativecommons.org/publicdomain/zero/1.0/" />
      </cc:Work>
      <cc:License
         rdf:about="http://creativecommons.org/publicdomain/zero/1.0/">
        <cc:permits
           rdf:resource="http://creativecommons.org/ns#Reproduction" />
        <cc:permits
           rdf:resource="http://creativecommons.org/ns#Distribution" />
        <cc:permits
           rdf:resource="http://creativecommons.org/ns#DerivativeWorks" />
      </cc:License>
    </rdf:RDF>
  </metadata>
  <g
     inkscape:label="Layer 1"
     inkscape:groupmode="layer"
     id="layer1"
     transform="translate(223.41125,-33.736939)">
    <path
       d="m -209.36102,111.03323 c -0.7276,-0.0529 -1.44922,-0.26147 -1.60359,-0.46359 -0.15437,-0.20213 -0.77905,-0.56691 -1.38818,-0.81064 -1.31581,-0.52648 -2.93701,-2.35911 -3.88171,-4.38794 -1.34953,-2.89822 -1.15017,-4.20635 1.05347,-6.912805 0.79991,-0.982429 1.45222,-1.994461 1.44957,-2.248958 -0.003,-0.254495 -0.35983,-0.986653 -0.79375,-1.627013 -0.43391,-0.640363 -0.78893,-1.366044 -0.78893,-1.612625 0,-0.535281 1.67983,-3.189428 2.89341,-4.571619 1.02159,-1.163534 1.73657,-1.248778 3.59159,-0.428215 1.19543,0.528799 1.32637,0.536379 2.53311,0.146645 0.73765,-0.238236 1.66551,-0.347204 2.2075,-0.259252 1.30666,0.212043 2.01819,-0.339659 3.20053,-2.481614 0.54643,-0.989923 1.14093,-1.978454 1.32111,-2.196735 0.18018,-0.218281 0.4084,-0.958472 0.50715,-1.644867 0.17011,-1.182373 0.14396,-1.256927 -0.49752,-1.417926 -0.37238,-0.09346 -1.12323,-0.0923 -1.66854,0.0026 -1.77459,0.308806 -2.51668,0.185653 -3.45435,-0.573265 -1.77757,-1.438751 -3.89482,-6.581307 -3.37887,-8.206918 0.1495,-0.471035 1.7657,-1.005938 4.65113,-1.539359 0.98891,-0.182814 2.11667,-1.040807 2.11667,-1.610349 0,-0.577565 -1.2381,-0.699022 -2.55424,-0.250571 -0.68431,0.233169 -1.43135,0.423944 -1.66008,0.42395 -0.22874,5e-6 -0.7412,0.407709 -1.1388,0.906015 -0.57065,0.715193 -1.04315,0.977675 -2.24348,1.246299 -0.99657,0.223022 -1.79601,0.603882 -2.31981,1.105185 -1.80047,1.723142 -5.30116,3.02486 -7.18452,2.671538 -1.19932,-0.224994 -2.94823,-1.862825 -3.16926,-2.967977 -0.0923,-0.46151 -0.37568,-0.895374 -0.63951,-0.979109 -0.26057,-0.0827 -0.62596,-0.333745 -0.81197,-0.557874 -0.47834,-0.576363 -0.54477,-4.252325 -0.0962,-5.325788 0.32681,-0.782169 0.46361,-0.860798 1.49765,-0.860798 0.9063,0 1.44773,-0.219733 2.65934,-1.079256 0.83674,-0.59359 1.52134,-1.246018 1.52134,-1.44984 0,-0.687528 1.97428,-2.973536 3.38537,-3.919911 2.7437,-1.840111 6.54149,-2.697582 10.91562,-2.464545 1.52055,0.08101 2.98185,0.230833 3.24733,0.332944 0.26548,0.10211 0.9496,0.03156 1.52027,-0.156776 0.90156,-0.297543 1.09961,-0.28629 1.51081,0.08585 0.37374,0.338224 0.86077,0.401597 2.3162,0.301386 l 1.84294,-0.126893 0.0219,1.472836 c 0.014,0.942224 0.16722,1.61816 0.42528,1.876221 0.36146,0.361461 0.4181,0.220105 0.54494,-1.360022 0.0987,-1.22933 0.0305,-1.976305 -0.22521,-2.466347 -0.20172,-0.386616 -0.36749,-0.96601 -0.36839,-1.287543 -7.9e-4,-0.321533 -0.31415,-0.874393 -0.69613,-1.228579 -0.76085,-0.705506 -0.65713,-1.22502 0.2471,-1.23757 0.56788,-0.0079 0.56891,-0.01432 0.0505,-0.316003 -0.29105,-0.169377 -0.9452,-0.376024 -1.45368,-0.459215 -0.64389,-0.105344 -1.02251,-0.355724 -1.24737,-0.824879 -0.17757,-0.370493 -0.62474,-0.835189 -0.99372,-1.032657 -0.77336,-0.41389 -0.88424,-1.188267 -0.20784,-1.45159 0.42111,-0.163941 0.40914,-0.224225 -0.13229,-0.666031 -0.73558,-0.600237 -0.73865,-0.729234 -0.0309,-1.302313 0.47974,-0.38847 0.51758,-0.544461 0.25234,-1.040066 -0.34304,-0.640997 -0.18946,-1.101283 0.36747,-1.101283 0.49287,0 0.63861,-0.535379 0.35452,-1.302398 -0.34496,-0.93136 -0.0777,-1.377175 0.77218,-1.287964 0.6247,0.06558 0.73181,-0.02 0.73181,-0.584638 0,-0.577875 0.10866,-0.656529 0.8599,-0.622447 0.89321,0.04052 1.11764,-0.336894 0.5424,-0.912137 -0.24498,-0.244976 -0.24578,-0.389223 -0.003,-0.631496 0.24227,-0.242272 0.45468,-0.181835 0.92987,0.264584 0.78146,0.734145 1.14147,0.731678 1.3352,-0.0091 0.15364,-0.587522 0.15396,-0.587471 0.91827,0.144792 l 0.76459,0.732519 0.45236,-0.690386 c 0.55595,-0.848485 1.03556,-0.733998 1.21628,0.290338 0.10749,0.609242 0.27477,0.771922 0.79375,0.771922 0.57008,0 0.65265,0.111798 0.62067,0.840365 -0.026,0.592998 0.0649,0.80131 0.30887,0.707687 0.20736,-0.07957 0.52541,0.245937 0.79464,0.813281 0.46828,0.986833 0.86068,1.136723 1.74161,0.665262 0.36037,-0.192861 0.47341,-0.441652 0.36124,-0.795053 -0.10552,-0.332462 -0.0194,-0.569536 0.24337,-0.670392 0.31631,-0.121376 0.3713,-0.413785 0.24759,-1.316392 -0.12706,-0.926958 -0.0721,-1.193709 0.27307,-1.326177 0.26631,-0.10219 0.43213,-0.46905 0.43213,-0.956033 0,-0.563262 0.14946,-0.829298 0.5204,-0.926302 0.28622,-0.07485 0.59586,-0.373844 0.68809,-0.664434 0.13722,-0.432335 0.31815,-0.498255 0.99563,-0.362758 0.65609,0.131219 0.91675,0.04784 1.25585,-0.401717 0.41084,-0.544662 0.45533,-0.549343 1.11477,-0.117261 0.65739,0.430735 0.70705,0.426457 1.15757,-0.0997 0.65244,-0.761997 1.23424,-0.689158 2.35494,0.294828 l 0.96192,0.844576 0.4484,-0.594457 c 0.4365,-0.57868 0.46028,-0.581324 0.89623,-0.09961 0.2463,0.272166 0.5257,0.88422 0.62088,1.360122 0.18993,0.949669 0.8285,1.379137 1.18136,0.794524 0.66325,-1.098856 0.76065,-1.177591 0.9992,-0.807755 0.12686,0.19668 0.14061,0.756837 0.0306,1.244793 -0.16186,0.717678 -0.10373,0.952674 0.30426,1.2299 0.49058,0.333346 0.48604,0.376876 -0.16618,1.593603 l -0.67053,1.250895 0.73093,0.150197 c 2.4537,0.504205 2.87884,0.733879 4.61036,2.490661 1.5432,1.565701 1.83227,2.021851 2.32071,3.661926 0.3997,1.342107 0.78261,2.062495 1.35013,2.540031 0.66159,0.556692 2.10701,2.914185 2.10701,3.436552 0,0.08372 0.7273,1.119349 1.61621,2.301391 3.18648,4.237234 3.47145,7.725985 0.79396,9.719946 -0.52523,0.391138 -1.01449,0.771371 -1.08725,0.84496 -1.15654,1.169702 -3.0521,1.703596 -5.80009,1.633627 -2.25434,-0.0574 -2.93117,-0.501869 -2.93117,-1.924854 0,-0.744704 -0.10146,-1.038807 -0.33073,-0.958654 -0.40717,0.142353 -0.38714,2.689587 0.0251,3.186258 0.15535,0.187187 0.35877,0.817575 0.45204,1.400865 0.14393,0.900063 0.0642,1.185765 -0.52694,1.888289 -0.8453,1.004584 -2.91747,1.524871 -5.23589,1.314644 -1.53444,-0.139137 -2.00617,0.05765 -1.60906,0.671226 0.11773,0.181901 0.64024,1.521355 1.16113,2.976563 l 0.94708,2.645833 1.22164,0.396875 c 1.43579,0.466442 2.68072,1.803924 3.69413,3.968751 2.19674,4.692647 2.30586,5.121275 1.98358,7.791876 -0.0429,0.355796 0.17106,0.600048 0.68978,0.78727 0.63662,0.22978 0.96146,0.154004 2.11667,-0.493773 2.90343,-1.628085 5.35897,-2.779652 5.94183,-2.786528 1.5107,-0.01783 2.96342,1.361429 2.96342,2.813534 0,1.034047 -2.04385,3.847547 -5.47455,7.536082 -3.18287,3.422075 -3.25753,3.466615 -5.47115,3.264575 l -1.81759,-0.1659 0.56282,0.7904 c 0.75429,1.0593 0.43695,1.85264 -1.18836,2.97088 -1.82788,1.25762 -5.15382,1.78993 -6.12865,0.9809 -0.52278,-0.43388 -1.91376,-3.6005 -1.91376,-4.35676 0,-0.3509 -0.18761,-1.00081 -0.41692,-1.44423 -0.33478,-0.64741 -0.53023,-0.77091 -0.99218,-0.62696 -2.0662,0.64388 -2.27321,0.51882 -3.12227,-1.886255 -0.33683,-0.954117 -0.85465,-1.931104 -1.15071,-2.171081 -0.29607,-0.239977 -0.7488,-0.763744 -1.00608,-1.163926 -0.50443,-0.784603 -1.23625,-0.920673 -2.45648,-0.456742 -0.39183,0.148974 -1.48806,0.330441 -2.43606,0.403259 -1.59155,0.122251 -1.83735,0.229182 -3.20741,1.395265 -5.32572,4.53284 -8.87139,6.14661 -12.65355,5.75912 -1.77953,-0.18232 -2.92922,-0.62987 -3.87032,-1.50664 -0.61647,-0.57432 -1.24923,-0.64232 -1.70802,-0.18353 -0.48184,0.48183 -0.38033,1.21775 0.21167,1.53458 0.29104,0.15576 0.52917,0.4576 0.52917,0.67076 0,0.23487 0.2553,0.38757 0.64799,0.38757 0.97955,0 1.94486,1.44063 2.15322,3.21349 0.17325,1.47404 -0.0525,2.27766 -0.86914,3.09432 -0.57209,0.57209 -2.90613,1.37011 -3.85314,1.31742 -0.47138,-0.0262 -1.45237,-0.0909 -2.17998,-0.14379 z m 42.43173,-5.65719 c 0.98851,-0.3446 1.47775,-1.06832 1.02693,-1.51914 -0.4445,-0.44449 -0.61064,-0.39238 -1.64528,0.51605 -1.40962,1.23766 -1.16993,1.62649 0.61835,1.00309 z m -46.18064,-2.618 c -0.22552,-2.822796 -0.59967,-3.231826 -0.60505,-0.66146 -0.005,2.41243 0.20214,3.55262 0.54496,2.99893 0.12024,-0.19421 0.14728,-1.24607 0.0601,-2.33747 z m 3.18314,1.71979 c -0.0838,-0.21828 -0.19909,-0.39688 -0.25628,-0.39688 -0.0572,0 -0.10399,0.1786 -0.10399,0.39688 0,0.21828 0.11533,0.39687 0.25628,0.39687 0.14096,0 0.18775,-0.17859 0.10399,-0.39687 z m 2.75937,-0.30188 0.6061,-0.16236 -0.56874,-0.39836 c -0.48018,-0.33633 -0.60484,-0.34139 -0.80049,-0.0325 -0.47462,0.74939 -0.30684,0.87981 0.76313,0.59319 z m -7.62161,-1.21948 c -0.003,-0.58463 -0.0771,-0.74465 -0.23215,-0.49987 -0.20804,0.32835 -0.10581,1.35977 0.13477,1.35977 0.0558,0 0.0996,-0.38695 0.0974,-0.8599 z m 45.42142,-1.4552 1.41005,-0.46302 0.002,-1.222214 c 0.002,-1.021715 0.17106,-1.434044 1.03301,-2.513542 0.56711,-0.710234 1.40054,-1.562788 1.85208,-1.894567 0.90838,-0.667449 1.08469,-1.381141 0.3412,-1.381141 -0.48992,0 -4.77997,3.100988 -6.33323,4.577866 -0.93141,0.885603 -1.01388,1.251471 -0.56943,2.526408 0.33827,0.97036 0.40401,0.98111 2.2644,0.37021 z m 3.39826,0.19843 c -0.0899,-0.14552 -0.42439,-0.26276 -0.74322,-0.26053 -0.47128,0.003 -0.50548,0.052 -0.18282,0.26053 0.52126,0.33687 1.13423,0.33687 0.92604,0 z m -42.08584,-1.720897 0.70717,-0.927151 -0.7214,-0.274272 c -1.07501,-0.408721 -1.42389,-0.148532 -1.42389,1.061937 0,1.350063 0.47931,1.396553 1.43812,0.139486 z m 47.55303,0.596417 c 0.86371,-0.698494 2.67238,-2.862682 2.51988,-3.015185 -0.13448,-0.134478 -3.35686,2.992155 -3.35686,3.257115 0,0.19926 0.45354,0.0682 0.83698,-0.24193 z m -42.09847,-1.736195 c -1.03489,-1.989592 -1.77008,-4.043601 -2.17227,-6.06901 -0.1806,-0.909505 -0.42361,-1.653646 -0.54001,-1.653646 -0.35208,0 -0.24088,1.374982 0.22466,2.778125 1.77355,5.34542 2.50177,6.924526 3.03992,6.591936 0.12678,-0.0784 -0.12176,-0.819685 -0.5523,-1.647405 z m 6.21508,1.520155 c 0.28476,-0.460753 -0.0396,-0.558331 -0.40245,-0.12108 -0.20869,0.25146 -0.22876,0.40327 -0.0533,0.40327 0.15475,0 0.35984,-0.12698 0.45577,-0.28219 z m -4.51833,-1.106873 c -0.10113,-0.472943 -0.27703,-0.978958 -0.3909,-1.124479 -0.11387,-0.145521 -0.39428,-0.859896 -0.62313,-1.5875 -0.22885,-0.727604 -0.77678,-2.380181 -1.21762,-3.672391 -0.44084,-1.292211 -0.80153,-2.512602 -0.80153,-2.711979 0,-0.199379 -0.17859,-0.362506 -0.39687,-0.362506 -0.67987,0 -0.44837,1.1469 1.01474,5.027084 1.69189,4.4869 2.90179,6.706914 2.41531,4.431771 z m 39.06932,-0.132292 c 0.32911,-0.419645 0.31975,-0.429003 -0.0999,-0.0999 -0.44072,0.345644 -0.58088,0.562917 -0.36312,0.562917 0.0549,0 0.2633,-0.208359 0.46302,-0.463021 z m -48.4525,-0.859896 c 0,-0.291041 -0.11203,-0.529166 -0.24897,-0.529166 -0.35516,0 -0.60542,0.481576 -0.41249,0.79375 0.27653,0.447421 0.66146,0.293444 0.66146,-0.264584 z m 3.83646,0.264584 c 0.0899,-0.145521 0.0445,-0.264584 -0.10106,-0.264584 -0.14552,0 -0.33817,0.119063 -0.42811,0.264584 -0.0899,0.145521 -0.0444,0.264583 0.10107,0.264583 0.14552,0 0.33816,-0.119062 0.4281,-0.264583 z m 46.599,-0.751758 c 1.42432,-1.031772 4.44935,-3.982876 4.26827,-4.16396 -0.26243,-0.262427 -5.75581,4.268671 -5.75581,4.747557 0,0.337163 0.47221,0.151902 1.48754,-0.583597 z m -37.60679,-2.160842 c -0.47607,-1.917459 -1.15593,-3.769958 -1.50427,-4.098859 -0.19595,-0.185015 -0.21969,-0.02588 -0.0789,0.529167 0.1107,0.436562 0.28925,1.210469 0.39678,1.719792 0.22438,1.062789 1.28327,3.566864 1.44143,3.408704 0.0582,-0.05818 -0.0566,-0.759638 -0.25499,-1.558804 z m 34.69811,0.609518 c -0.21809,-0.218085 -0.96011,0.131247 -0.96011,0.452004 0,0.195675 0.16919,0.191648 0.55183,-0.01312 0.3035,-0.16243 0.48723,-0.35992 0.40828,-0.438869 z m -38.2289,-1.168455 c -0.25673,-0.654468 -0.6247,-1.947096 -1.10184,-3.870651 -0.15341,-0.618464 -0.39341,-1.124479 -0.53332,-1.124479 -0.36444,0 -0.3137,0.703932 0.11062,1.534493 0.20076,0.392957 0.45144,1.131184 0.55708,1.640507 0.21636,1.043202 0.94271,2.721322 1.10683,2.557193 0.0592,-0.05916 -0.004,-0.390838 -0.13937,-0.737063 z m 42.41693,-0.497213 c 0.65,-0.509323 1.18633,-1.015339 1.19184,-1.12448 0.0232,-0.459189 -0.55226,-0.124481 -1.75366,1.020033 -1.47317,1.403416 -1.16829,1.460098 0.56182,0.104447 z m -40.60636,0.595312 c -0.002,-0.10914 -0.11947,-0.377031 -0.26053,-0.595312 -0.2074,-0.320929 -0.25726,-0.282956 -0.26053,0.198437 -0.002,0.327422 0.11501,0.595313 0.26053,0.595313 0.14552,0 0.26276,-0.0893 0.26053,-0.198438 z m 22.17927,-1.193662 c 0.12154,-0.631145 -0.27806,-0.578528 -0.69665,0.09172 -0.30383,0.486519 -0.28826,0.540872 0.13176,0.459984 0.26197,-0.05045 0.51617,-0.29872 0.56489,-0.551709 z m -8.39492,-1.445543 c 0.21177,-1.044025 0.73052,-1.860775 1.82498,-2.873354 0.99724,-0.922642 1.97972,-2.226784 1.6768,-2.2258 -0.37681,0.0012 -5.37583,4.99763 -5.37583,5.373024 0,0.547304 0.31052,0.743855 1.03902,0.65769 0.50843,-0.06013 0.70209,-0.276182 0.83503,-0.93156 z m 1.69103,0.204948 c 0.64781,-1.25272 0.45269,-1.539303 -0.40554,-0.595653 -0.43653,0.47998 -0.72367,0.985996 -0.63809,1.124479 0.27706,0.448286 0.63113,0.268877 1.04363,-0.528826 z m 3.31277,-1.137618 c 8e-4,-0.109141 0.10745,-0.198437 0.23716,-0.198437 0.2359,0 5.39553,-5.024536 6.64332,-6.469389 l 0.66146,-0.765916 -1.05833,0.752669 c -1.76684,1.25654 -6.84558,6.269162 -7.4651,7.367913 -0.54465,0.965951 -0.35556,1.141158 0.32955,0.305348 0.35785,-0.436563 0.65122,-0.883047 0.65194,-0.992188 z m -7.72576,0.226584 c 0.64325,-0.942279 6.56378,-6.741949 8.62316,-8.447128 1.10705,-0.916641 1.58285,-1.767477 0.98841,-1.767477 -0.47489,0 -4.24309,3.374768 -7.63918,6.841577 -1.92815,1.968302 -3.50573,3.605676 -3.50573,3.638606 0,0.03293 0.0694,0.240686 0.15419,0.461679 0.21375,0.557017 0.66481,0.319165 1.37915,-0.727257 z m -12.39538,-0.254688 c -0.25476,-0.234805 -0.28997,-0.194008 -0.15711,0.182036 0.0942,0.266562 0.18505,0.62375 0.20193,0.79375 0.0169,0.169997 0.0876,0.08808 0.1571,-0.182036 0.0695,-0.270118 -0.0213,-0.627306 -0.20192,-0.79375 z m 10.84256,-0.805421 c 0.95212,-1.288833 4.76767,-5.24397 7.25771,-7.523216 0.53012,-0.485243 0.96385,-0.991258 0.96385,-1.124479 0,-0.368242 -0.17726,-0.297471 -0.8844,0.353095 -0.35589,0.327422 -1.15792,1.012031 -1.78229,1.521354 -1.78569,1.456669 -7.38747,7.161252 -7.38747,7.523046 0,0.373219 0.25442,0.679038 0.56492,0.679038 0.11667,0 0.68713,-0.642978 1.26768,-1.428838 z m 15.72465,-2.427327 c 2.44826,-2.399038 3.53019,-3.287586 4.00309,-3.287586 1.15501,0 0.56466,0.862346 -2.06614,3.018087 -1.08239,0.886939 -1.60235,1.744413 -1.05778,1.744413 0.0991,0 1.03514,-0.654843 2.08008,-1.455208 2.14266,-1.641142 2.91413,-1.877097 2.49001,-0.761566 -0.18392,0.483751 -0.17347,0.802386 0.0345,1.05302 0.22998,0.277107 0.13753,0.550392 -0.40379,1.193724 -1.42617,1.694902 -0.43735,2.25366 1.97356,1.115213 1.38541,-0.654193 1.58293,-0.840928 1.58293,-1.49651 0,-1.519174 -1.97917,-5.592394 -3.63509,-7.481181 -2.02981,-2.315244 -3.63301,-1.350526 -12.85564,7.735793 -0.83341,0.821097 -1.36786,1.684216 -1.04287,1.684216 0.11665,0 1.99607,-1.733297 4.17649,-3.85177 2.18042,-2.118472 4.40793,-4.156404 4.95003,-4.528739 1.15903,-0.796062 1.99157,-0.687922 1.51788,0.19716 -0.42071,0.786114 -0.23098,0.837483 0.88469,0.239522 1.14766,-0.615109 1.24201,-0.629452 1.24201,-0.188801 0,0.183721 -1.62669,1.880362 -3.61487,3.770312 -1.98817,1.889951 -3.83364,3.644633 -4.10104,3.899295 -0.2674,0.254661 -0.48618,0.570936 -0.48618,0.702834 0,0.660714 1.28214,-0.317524 4.32809,-3.302228 z m -17.34967,1.26338 c 1.09744,-1.470665 4.9932,-5.609299 5.28012,-5.609299 0.25309,0 1.39146,-1.120026 1.39146,-1.369036 0,-0.450554 -0.49057,-0.16817 -2.95291,1.699765 -2.44915,1.857931 -5.02244,4.476345 -5.58279,5.680708 -0.20065,0.431231 -0.18154,0.698095 0.0718,1.0034 0.39343,0.474052 0.38443,0.481111 1.79228,-1.405538 z m -9.81642,0.426508 c -0.0845,-0.211066 -0.14716,-0.148373 -0.15986,0.159854 -0.0115,0.278913 0.0511,0.435184 0.13897,0.347265 0.0879,-0.08792 0.0973,-0.316124 0.0209,-0.507119 z m 8.76848,-2.530078 c 2.85753,-2.530295 3.17382,-2.85746 3.26911,-3.381468 0.1546,-0.850119 -0.42982,-0.668046 -1.72383,0.537057 -0.70323,0.654921 -1.36624,1.190765 -1.47335,1.190765 -0.36563,0 -2.40657,2.830468 -2.40657,3.337537 0,0.300259 0.50625,-0.06488 2.33464,-1.683891 z m -1.16531,-1.367541 c 1.06651,-1.077759 1.49821,-1.699977 1.3847,-1.995784 -0.12267,-0.319683 -0.28457,-0.365244 -0.63188,-0.177824 -0.74127,0.400024 -2.98048,2.914695 -2.98048,3.347136 0,0.746548 0.6844,0.386005 2.22766,-1.173528 z m -0.8386,-1.489258 c 0.83674,-0.805619 1.52514,-1.54909 1.52977,-1.652159 0.027,-0.601027 0.99319,-1.240573 2.90833,-1.925066 2.93893,-1.050409 3.72176,-1.031819 2.72932,0.06481 -0.58842,0.650189 -0.42134,0.744233 0.83622,0.470685 4.14576,-0.901784 7.96898,-1.506619 10.90971,-1.725922 3.1611,-0.235736 3.29912,-0.388503 2.45938,-2.722184 -0.34794,-0.96693 -0.70035,-2.353368 -0.78314,-3.080973 -0.20384,-1.79144 -0.70764,-1.713931 -1.71972,0.264584 -0.44663,0.873125 -1.00126,1.622306 -1.23251,1.664848 -0.2503,0.04605 -0.71538,-0.368326 -1.14927,-1.023969 -1.06611,-1.611008 -5.73083,-6.163702 -7.02507,-6.856355 -0.77042,-0.412316 -0.64706,-1.686994 0.17459,-1.803992 0.98368,-0.140076 5.22201,1.96637 5.78307,2.874171 0.0851,0.137779 0.39774,0.250505 0.69464,0.250505 0.29689,0 1.22974,0.425847 2.07298,0.946325 1.03962,0.641688 1.77643,0.918501 2.28884,0.859895 0.68242,-0.07805 0.76849,-0.201628 0.88796,-1.274976 0.15756,-1.415542 0.77261,-1.815762 3.23699,-2.106335 0.88751,-0.104645 1.67636,-0.348806 1.81501,-0.561771 0.13488,-0.207174 0.21421,-0.912461 0.17631,-1.567305 l -0.0689,-1.190625 -1.32292,-0.06348 c -0.7276,-0.03491 -1.6801,-0.08224 -2.11667,-0.105153 -0.43656,-0.02291 -1.44859,0.14673 -2.24896,0.376996 -2.33183,0.670878 -4.26993,-0.12283 -5.7259,-2.344917 -0.23121,-0.352862 -0.54814,-0.641567 -0.7043,-0.641567 -0.47186,0 -2.03272,-1.167082 -2.03465,-1.521354 -0.002,-0.441989 -0.39277,-0.41919 -0.7784,0.04546 -0.17171,0.206904 -0.7816,0.455496 -1.35531,0.552424 -0.57371,0.09693 -1.0431,0.284826 -1.0431,0.417557 0,0.132728 -0.11906,0.241327 -0.26459,0.241327 -0.2576,0 -0.55522,0.223287 -1.92613,1.445072 -0.5811,0.517893 -0.6393,0.722672 -0.46942,1.65168 0.23317,1.27512 0.9843,2.295083 3.37239,4.579355 2.18109,2.086272 2.55523,2.54353 2.35126,2.873574 -0.36851,0.596244 -2.34368,-0.638408 -4.24477,-2.653342 l -1.95144,-2.068304 -0.28748,1.340464 c -0.43911,2.047505 -1.32126,3.880268 -2.71822,5.647378 -1.86944,2.364775 -3.36203,3.792935 -4.77566,4.569497 -1.0424,0.57263 -1.25677,0.818613 -1.25677,1.442093 0,0.900274 0.56343,0.978363 2.44161,0.3384 0.66714,-0.227314 1.73014,-0.375833 2.36224,-0.330042 l 1.14927,0.08326 -1.19062,0.57328 c -0.65485,0.315304 -1.48829,0.649317 -1.85209,0.742246 -0.3638,0.09293 -1.10794,0.358741 -1.65364,0.590693 -0.85994,0.36552 -0.99219,0.537721 -0.99219,1.291974 0,0.478634 0.11906,0.943827 0.26458,1.033764 0.14552,0.08994 0.26459,0.454152 0.26459,0.809366 0,0.979294 0.51243,0.786347 2.18281,-0.821894 z m -1.25677,-0.64893 c 0.0899,-0.145521 0.21602,-0.264583 0.2802,-0.264583 0.0642,0 0.11667,0.119062 0.11667,0.264583 0,0.145521 -0.12609,0.264583 -0.2802,0.264583 -0.15411,0 -0.20661,-0.119062 -0.11667,-0.264583 z m 10.37004,-3.873363 c -0.28214,-0.282138 0.0787,-0.624554 0.65818,-0.624554 0.45529,0 0.49125,0.06591 0.21657,0.396875 -0.35567,0.428554 -0.60816,0.494273 -0.87475,0.227679 z m 6.97378,4.468675 c 2.71418,-2.391941 3.55697,-3.227943 3.26079,-3.234531 -0.16361,-0.0037 -0.73371,0.380339 -1.26689,0.853281 -0.53317,0.472943 -1.6197,1.390404 -2.4145,2.0388 -1.35857,1.108321 -1.73469,1.599221 -1.22529,1.599221 0.12089,0 0.86154,-0.565547 1.64589,-1.256771 z m -23.44743,-6.386708 c 0.17486,-0.282927 -1.6657,-1.741038 -1.90085,-1.505882 -0.0905,0.09048 0.24477,0.514377 0.74498,0.94201 1.05946,0.905735 0.9712,0.862676 1.15587,0.563872 z m 3.32548,-0.284713 c 0,-0.33065 -0.93844,-0.834758 -1.15354,-0.619657 -0.2312,0.231206 0.34935,0.874932 0.78906,0.874932 0.20047,0 0.36448,-0.114874 0.36448,-0.255275 z m -1.22723,-2.787433 c -0.0838,-0.218281 -0.40745,-0.383064 -0.7193,-0.366183 -0.44725,0.02421 -0.46921,0.05625 -0.10399,0.151693 0.25466,0.06655 0.46302,0.231331 0.46302,0.366181 0,0.134853 0.11533,0.245184 0.25628,0.245184 0.14095,0 0.18775,-0.178594 0.10399,-0.396875 z m 3.60848,0.155538 c 0,-0.460246 -3.98096,-2.969083 -4.57617,-2.88394 -0.47367,0.06775 -0.3167,0.243734 0.875,0.980937 0.79871,0.494102 1.86752,1.178711 2.37511,1.521355 0.98995,0.668242 1.32606,0.764979 1.32606,0.381648 z m -6.08541,-1.450872 c 0,-0.190902 -2.55417,-1.747375 -2.86744,-1.747375 -0.7075,0 -0.21107,0.460984 1.21379,1.127118 1.65533,0.773879 1.65365,0.773247 1.65365,0.620257 z m 5.69942,-0.936022 c -0.0959,-0.155202 -0.30102,-0.282186 -0.45577,-0.282186 -0.17544,0 -0.15537,0.151813 0.0533,0.40327 0.36289,0.437251 0.68721,0.339672 0.40245,-0.121084 z m 3.29641,0.136329 c 0,-0.488381 -0.4613,-1.029874 -1.15657,-1.35763 -0.45529,-0.21463 -1.60171,-0.851813 -2.5476,-1.415965 -0.94588,-0.564153 -1.82199,-0.96442 -1.94691,-0.889484 -0.26473,0.158811 0.88099,1.16613 2.2115,1.944338 0.50932,0.2979 1.40229,0.821785 1.98437,1.164185 1.04434,0.61432 1.45521,0.770893 1.45521,0.554556 z m 16.40416,-0.535805 c 0,-0.64254 -0.85236,-1.47021 -1.51408,-1.47021 -0.51562,0 -0.40748,0.40599 0.34698,1.302615 0.82649,0.982226 1.1671,1.031137 1.1671,0.167595 z m -20.75891,-0.394274 c -0.0959,-0.155202 -0.30101,-0.282186 -0.45576,-0.282186 -0.17545,0 -0.15537,0.151813 0.0533,0.40327 0.36288,0.43725 0.68721,0.339672 0.40244,-0.121084 z m -17.03056,-0.333473 c 0.87337,-0.490363 1.80614,-1.320763 1.80614,-1.607915 0,-0.134223 -0.70389,-1.012219 -1.56421,-1.951101 -0.95845,-1.04598 -1.85218,-2.36809 -2.30783,-3.414001 -0.40899,-0.938821 -0.86635,-1.706946 -1.01634,-1.706946 -0.14999,0 -0.61382,0.36141 -1.03074,0.803132 -0.41691,0.441724 -1.1309,0.992648 -1.58664,1.224275 -1.10439,0.561305 -1.08719,0.529936 -0.57267,1.044461 0.41012,0.410117 0.42867,0.735983 0.11095,1.948934 -0.0661,0.25232 0.13185,0.424164 0.55915,0.485426 0.97256,0.139433 1.12974,0.410638 0.84199,1.452798 -0.22419,0.811953 -0.18287,1.005964 0.30953,1.453253 0.31255,0.283911 0.74686,0.588245 0.96515,0.676301 0.59675,0.240732 2.78613,-0.01593 3.48552,-0.408617 z m 13.05093,0.05129 c -0.0899,-0.145521 -0.28258,-0.264583 -0.4281,-0.264583 -0.14552,0 -0.191,0.119062 -0.10106,0.264583 0.0899,0.145521 0.28258,0.264583 0.4281,0.264583 0.14552,0 0.191,-0.119062 0.10106,-0.264583 z m 9.65047,-0.74322 c -0.011,-0.719516 -4.52771,-3.490113 -5.68973,-3.490113 -0.60741,0 0.005,1.020005 0.79215,1.31926 0.34082,0.129579 0.69601,0.359121 0.78932,0.510095 0.20127,0.325668 2.75164,2.017427 3.32134,2.203173 0.53543,0.174572 0.79513,-0.0044 0.78692,-0.542415 z m 1.06516,-1.707581 c 0,-0.183774 -0.22609,-0.451665 -0.50242,-0.595313 -0.27633,-0.143647 -1.27004,-0.707662 -2.20824,-1.253365 -1.76926,-1.029087 -2.31642,-1.195348 -2.31642,-0.703869 0,0.293778 1.0425,1.274382 1.37183,1.290379 0.30844,0.01497 1.36853,0.521758 2.20004,1.051726 0.93811,0.597911 1.45521,0.67269 1.45521,0.210442 z m -21.34017,-2.388738 c -0.98373,-1.051608 -1.94149,-2.457048 -2.60101,-3.816763 -1.00047,-2.062639 -1.45882,-2.494566 -1.45882,-1.374706 0,0.769781 1.44035,3.441285 2.29766,4.26162 1.50128,1.436521 2.86748,2.580251 3.09049,2.587228 0.12582,0.0039 -0.47192,-0.741881 -1.32832,-1.657379 z m 21.55801,0.407768 c -0.072,-0.389737 -2.56979,-1.883008 -3.1944,-1.909736 -0.53632,-0.02297 -0.10302,0.760584 0.57618,1.041916 0.42604,0.176474 0.98028,0.548105 1.23163,0.825852 0.58834,0.650102 1.50406,0.677817 1.38659,0.04197 z m -17.15117,0.115843 c 0,-0.736153 -4.85927,-8.119489 -5.34376,-8.119489 -0.35002,0 -0.2491,0.305718 0.78609,2.38125 1.18844,2.382806 3.65851,5.820834 4.18202,5.820834 0.2066,0 0.37565,-0.03717 0.37565,-0.08259 z m 1.85208,-0.154948 c 0,-0.418405 -3.33588,-5.749325 -4.08846,-6.533579 -0.15244,-0.158856 -0.56375,-0.666025 -0.91401,-1.127041 -0.35027,-0.461015 -0.6943,-0.780766 -0.7645,-0.710559 -0.0702,0.07021 0.18646,0.539475 0.57037,1.042815 0.38392,0.503338 0.82028,1.191189 0.96969,1.528557 0.14942,0.337364 0.53652,0.993142 0.86023,1.457282 0.3237,0.46414 1.11598,1.684531 1.76061,2.71198 1.07131,1.707523 1.60607,2.250429 1.60607,1.630545 z m 3.54733,-3.119819 c -0.2626,-0.700066 -0.5431,-1.332378 -0.62333,-1.405139 -0.0802,-0.07276 -0.43462,-0.668073 -0.78752,-1.322916 -0.3529,-0.654844 -0.94822,-1.607238 -1.32292,-2.116429 -0.3747,-0.509193 -0.76761,-1.044975 -0.87313,-1.190625 -0.81886,-1.130221 -1.5127,-1.822611 -1.66959,-1.666105 -0.10267,0.10242 0.18485,0.691422 0.63895,1.308894 0.45409,0.617474 0.82563,1.220652 0.82563,1.340395 0,0.119745 0.32498,0.721368 0.72219,1.336939 1.07994,1.673617 1.32458,2.095352 1.76198,3.037452 0.21958,0.472942 0.50527,0.859895 0.63486,0.859895 0.12958,0 0.37824,0.313042 0.55257,0.695651 0.53527,1.174784 0.64732,0.473607 0.14031,-0.878012 z m 1.75638,0.16152 c -0.15064,-0.35234 -0.74336,-1.474054 -1.31715,-2.4927 -0.5738,-1.018646 -1.49349,-2.715287 -2.04377,-3.770313 -0.55027,-1.055026 -1.161,-1.918229 -1.35718,-1.918229 -0.42106,0 -0.2003,0.954743 0.37193,1.608563 0.20119,0.229868 1.15061,1.956274 2.10983,3.836459 1.94867,3.81962 2.31318,4.384286 2.43341,3.769609 0.0423,-0.216025 -0.0464,-0.681051 -0.19707,-1.033389 z m -10.59538,0.73491 c 0,-0.392708 -1.9682,-3.501496 -2.37664,-3.753927 -0.49734,-0.307372 -0.27513,0.576005 0.39227,1.559478 0.3638,0.536093 0.66146,1.051049 0.66146,1.144349 0,0.174278 1.08216,1.394365 1.23674,1.394365 0.0474,0 0.0862,-0.154919 0.0862,-0.344265 z m 5.45526,-0.624531 c -0.22384,-0.413049 -0.41175,-0.594341 -0.41758,-0.402873 -0.0139,0.456882 0.52394,1.454499 0.69301,1.285428 0.0724,-0.07236 -0.0516,-0.469509 -0.27543,-0.882555 z m 1.33129,-0.691356 c -0.3719,-0.786143 -0.86039,-1.58223 -1.08553,-1.769081 -0.22514,-0.186852 -0.40935,-0.455197 -0.40935,-0.596329 0,-0.141128 -0.23813,-0.559326 -0.52917,-0.929325 -0.35215,-0.447691 -0.52916,-0.538869 -0.52916,-0.272566 0,0.220086 0.16691,0.538684 0.37091,0.707991 0.20401,0.169309 0.45121,0.630372 0.54934,1.024586 0.20666,0.83018 1.97764,3.595597 2.17575,3.39748 0.0734,-0.07337 -0.17088,-0.776613 -0.54279,-1.562756 z m 6.82799,0.801124 c -0.0832,-0.472464 -0.54475,-1.633323 -1.02559,-2.579688 -0.48084,-0.946362 -0.95777,-1.987066 -1.05984,-2.312675 -0.25353,-0.808723 -1.51064,-3.032353 -1.64076,-2.902233 -0.0983,0.09829 0.51545,1.667229 1.36688,3.494249 0.83032,1.781717 1.97394,4.604922 1.97394,4.872992 0,0.157512 0.12076,0.286383 0.26835,0.286383 0.1574,0 0.20578,-0.355203 0.11702,-0.859028 z m 6.5817,0.441886 c -0.088,-0.229431 -0.41173,-0.526802 -0.7193,-0.660829 -0.30758,-0.134025 -0.76431,-0.390117 -1.01497,-0.569098 -0.31767,-0.226824 -0.53972,-0.241427 -0.73295,-0.0482 -0.19323,0.193228 -0.0552,0.391691 0.45574,0.655082 0.40312,0.207824 0.82816,0.526888 0.94453,0.709027 0.3212,0.502725 1.26371,0.426771 1.06695,-0.08598 z m -8.8104,-2.451836 c -0.45833,-0.968677 -0.96777,-1.999356 -1.13209,-2.290397 -0.16432,-0.291042 -0.6457,-1.184011 -1.06973,-1.984375 -0.42404,-0.800365 -0.9375,-1.629551 -1.14104,-1.842636 -0.32225,-0.337375 -0.37006,-0.31174 -0.37006,0.198438 0,0.322225 0.0972,0.585864 0.21597,0.585864 0.2165,0 0.87875,1.253075 3.00407,5.684134 0.70587,1.471655 1.17548,2.192774 1.23311,1.893523 0.0512,-0.265827 -0.28191,-1.275874 -0.74023,-2.244551 z m 43.75125,1.267143 c 1.00796,-1.197896 0.87566,-3.107595 -0.3656,-5.277332 -1.60801,-2.81082 -2.2282,-3.700702 -2.58039,-3.702494 -0.18079,-9.26e-4 -0.70686,0.569798 -1.16905,1.268264 -0.46219,0.698465 -1.23373,1.561668 -1.71454,1.918229 -0.4808,0.35656 -0.87747,0.737589 -0.88148,0.84673 -0.0141,0.38341 0.48942,0.191598 1.31042,-0.499232 0.95587,-0.804312 2.65105,-1.719392 2.65105,-1.43107 0,0.248489 -3.61959,3.64213 -4.49355,4.213037 -0.3614,0.236085 -0.86742,0.637604 -1.12448,0.892265 -0.25706,0.254662 -0.64598,0.463021 -0.86426,0.463021 -0.22049,0 -0.39688,0.235186 -0.39688,0.529167 0,0.618506 0.5885,0.69841 1.04983,0.142539 0.17648,-0.212646 0.54659,-0.458267 0.82246,-0.545825 0.46646,-0.14805 0.97462,-0.571405 3.02251,-2.518098 0.7841,-0.745358 2.25028,-1.317869 2.24754,-0.877612 -8e-4,0.124917 -0.65189,0.697063 -1.44691,1.271439 -1.39415,1.007226 -1.99889,1.733807 -1.44307,1.733807 0.14684,0 0.58959,-0.232511 0.98388,-0.516689 0.39429,-0.284176 1.05748,-0.598046 1.47376,-0.697484 0.68434,-0.163476 0.73968,-0.12664 0.57748,0.384394 -0.11507,0.362551 -0.0657,0.565195 0.13764,0.565195 0.21352,0 0.2688,0.297246 0.1693,0.910379 -0.11183,0.689139 -0.0624,0.877654 0.20321,0.775713 0.51794,-0.198755 0.73679,0.338778 0.39667,0.974302 -0.2688,0.502248 -0.24765,0.52833 0.2238,0.276016 0.28636,-0.153257 0.83116,-0.647655 1.21066,-1.098661 z m -5.92459,0.808085 c 0,-0.145521 -0.0525,-0.264584 -0.11668,-0.264584 -0.0642,0 -0.19026,0.119063 -0.28019,0.264584 -0.0899,0.145521 -0.0374,0.264583 0.11667,0.264583 0.15411,0 0.2802,-0.119062 0.2802,-0.264583 z m -35.05974,-3.193714 c -0.52197,-1.226635 -1.08502,-2.54317 -1.25122,-2.925636 -0.33292,-0.766096 -1.25987,-1.50282 -1.25987,-1.001321 0,0.160682 0.15928,0.608177 0.35395,0.994431 1.02585,2.035448 1.49953,3.118581 1.49887,3.4274 -0.001,0.462796 0.79437,1.990148 1.16066,2.228852 0.59553,0.388094 0.42243,-0.550362 -0.50239,-2.723726 z m 1.57439,-0.184045 c -0.67774,-1.874223 -1.49718,-3.585739 -1.92386,-4.018235 -0.33038,-0.334896 -0.35355,-0.300744 -0.17949,0.264584 0.52736,1.712822 2.39364,5.823685 2.46987,5.440402 0.0475,-0.238866 -0.11743,-0.997905 -0.36652,-1.686751 z m 21.72236,1.045668 c 1.22072,-1.220718 1.79433,-2.862731 1.61141,-4.61283 -0.0887,-0.848249 -0.37635,-2.011588 -0.63932,-2.585194 -0.45524,-0.993042 -2.22828,-2.617692 -2.87388,-2.633358 -0.54527,-0.01323 -1.91534,1.81106 -2.10021,2.796505 -0.0994,0.529704 -0.11837,1.961873 -0.0422,3.182599 0.14421,2.311522 0.48173,3.155157 1.69591,4.238898 0.75476,0.673679 1.3931,0.568584 2.3483,-0.38662 z m -1.7137,-2.806729 c -0.46608,-0.561586 -0.24776,-2.815069 0.30639,-3.162506 0.65422,-0.410184 1.03163,0.07247 1.19584,1.529305 0.18974,1.683451 -0.67777,2.626608 -1.50223,1.633201 z m 13.21211,3.255508 c 0,-0.145521 -0.11907,-0.191 -0.26459,-0.101063 -0.14552,0.08994 -0.26458,0.282583 -0.26458,0.428103 0,0.145521 0.11906,0.191001 0.26458,0.101063 0.14552,-0.08994 0.26459,-0.282583 0.26459,-0.428103 z m -44.71458,-0.118457 c 0,-0.384127 -0.5924,-1.188453 -1.05939,-1.438376 -0.50073,-0.267985 -0.49965,-0.24603 0.0322,0.655394 0.48005,0.813626 1.02719,1.230683 1.02719,0.782982 z m 39.87919,-2.165419 c 1.03946,-2.241222 1.29376,-3.751122 1.01183,-6.00763 -0.18914,-1.513811 -1.1365,-3.054349 -1.87828,-3.054349 -0.61843,0 -2.50641,2.127663 -2.90634,3.275305 -0.53877,1.546054 -0.47328,2.905803 0.25243,5.241775 0.79728,2.566292 0.81719,2.59542 1.774,2.59542 0.73385,0 0.86888,-0.158546 1.74636,-2.050521 z m -2.56364,-1.900835 c -0.63458,-1.185741 -0.0807,-2.553111 0.95346,-2.353943 0.59757,0.115083 1.00195,1.631723 0.62356,2.338745 -0.35937,0.671491 -1.22133,0.679797 -1.57702,0.01519 z m -24.08639,3.184612 c 0,-0.130667 -0.30157,-0.755745 -0.67016,-1.389063 -0.58503,-1.005218 -0.64733,-1.050657 -0.49042,-0.357735 0.29412,1.298903 0.60136,1.984375 0.88945,1.984375 0.14912,0 0.27113,-0.10691 0.27113,-0.237577 z m 1.94258,-0.0617 c 0.49696,0.412446 0.70326,0.10754 0.70326,-1.039432 0,-0.632304 -0.14235,-1.04055 -0.39688,-1.138224 -0.21828,-0.08376 -0.39687,-0.03697 -0.39687,0.103984 0,0.641633 -0.56047,0.133696 -1.32292,-1.198928 -0.76434,-1.335918 -1.32292,-1.840399 -1.32292,-1.194787 0,0.143232 0.38694,1.264217 0.85986,2.491076 0.6564,1.702859 0.93812,2.165702 1.19062,1.956142 0.22973,-0.190659 0.43924,-0.184497 0.68585,0.02016 z m 28.34019,-1.552808 c 0.22489,0 0.4089,-0.178594 0.4089,-0.396875 0,-0.218281 -0.0836,-0.396875 -0.18584,-0.396875 -0.25444,0 -1.93083,1.642642 -1.93083,1.891959 0,0.11036 0.29225,-0.09159 0.64943,-0.448776 0.35719,-0.357188 0.83344,-0.649433 1.05834,-0.649433 z m -45.37921,-0.557559 c -0.39058,-0.729792 -1.57231,-2.035644 -1.57231,-1.737448 0,0.590728 1.53721,2.698073 1.78637,2.448915 0.0597,-0.05972 -0.0366,-0.379883 -0.21406,-0.711467 z m 0.35786,-2.15442 c -0.13302,-0.692455 -0.60725,-1.040466 -0.60725,-0.445627 0,0.350017 0.54001,1.383352 0.65953,1.262038 0.0481,-0.04884 0.0246,-0.416229 -0.0523,-0.816411 z m 44.76694,-0.459449 c 0.22474,-0.4346 0.76008,-1.190475 1.18965,-1.679721 0.8655,-0.985758 1.98136,-3.350935 1.58092,-3.350935 -0.14035,0 -0.25518,0.105495 -0.25518,0.234434 0,0.54617 -2.23957,3.529561 -2.81333,3.747699 -0.46811,0.177977 -0.62625,0.440198 -0.62625,1.038402 0,1.019623 0.39989,1.024001 0.92419,0.01011 z m 0.49165,-3.942106 c 1.66517,-3.069218 1.17632,-5.583019 -1.64994,-8.484378 -1.72182,-1.767569 -2.22854,-1.981507 -4.13042,-1.743883 -1.54565,0.193117 -3.2503,1.398248 -3.98359,2.816267 -0.44795,0.866246 -0.25623,0.966473 0.6434,0.336348 1.3976,-0.978916 3.7368,-0.923448 2.91307,0.06908 -0.16513,0.198974 -0.45192,0.36177 -0.63731,0.36177 -0.37462,0 -1.97939,1.723939 -1.97939,2.126388 0,0.140739 0.44473,0.01753 0.98827,-0.27379 1.18549,-0.635381 2.7159,-0.714046 2.7159,-0.1396 0,0.214544 -0.33163,0.561573 -0.73696,0.771177 -0.7603,0.393164 -1.59604,1.62102 -1.30289,1.914172 0.0912,0.0912 0.61724,-0.01342 1.16898,-0.23249 0.55174,-0.219065 1.48802,-0.478985 2.08063,-0.577599 l 1.07746,-0.1793 0.46397,1.922317 c 0.8101,3.356369 1.15634,3.548356 2.36882,1.313525 z"
       id="path210"
       inkscape:connector-curvature="0"
       sodipodi:nodetypes="ccccsccscccccscsccccsccccssccccscscscccsccscccccccccccccsscscccscccscsccccccccsccscccscsccccccccscscscccssccccscccccccccsscccccsccsccsscccccsscccccccccccccccssscccscccccscccccccsccccccccsccssccscscsccsccscccsssssscccsccsscscscscccsccscsccccscccccsccccccsccccscccccccccscccccccsccccccccssscccccccsssccssscscscscccsccsscccsccscccssscccccccccsccssscccscccsccsccccccccscscssccccccscccsscsscccccsscccccsscscccsssccsccccccscccccscsscscsscscccssssscscccscccccssssscsccccsccsccccccccccscsccsccscscsscsscsscccccccccsscsssssccccccsccsccccsccscccccscscccccssccccccccscsccccccccssscccccccccccccssccccscscccsccssscccsscccscccccsscssccsccccccccccccccccccccccscscssccsscsscsscccccsccsscscscsccccsssscscscccscccccsscscccsscscsscscccccccc" />
  </g>
</svg>
