<?xml version="1.0" encoding="utf-8"?>
<!-- Generator: Adobe Illustrator 23.0.1, SVG Export Plug-In . SVG Version: 6.00 Build 0)  -->
<svg version="1.1" id="Layer_1" xmlns="http://www.w3.org/2000/svg" xmlns:xlink="http://www.w3.org/1999/xlink" x="0px" y="0px"
	 viewBox="0 0 373.2 402.1" style="enable-background:new 0 0 373.2 402.1;" xml:space="preserve">
<style type="text/css">
	.st0{fill:#FFFFFF;}
	.st1{font-family:'Garamond-Bold';}
	.st2{font-size:156.04px;}
</style>
<title>svg paulogo</title>
<path class="st0" d="M90.4,50.1c4.3,45.8,7.9,91.7,14.3,137.3c6.4,45.9,13.3,91.6,21.9,137.2c2.4,12.9,5,25.8,8.2,38.4
	c3.1,12.3,6.1,25.8,13.3,36.5l8.7-6.7c-2.8-2.5-4.8-6-6.6-9.2c-1.3-2.4-5.1-0.8-4.4,1.9c1.1,3.7,1.6,7.5,1.5,11.3
	c-0.5,6.2,10,7.7,10.9,1.5c1.8-11.5-0.2-23.6-2.1-34.9s-4.2-22.6-6.5-33.8c-4.6-22.5-9.6-44.8-14.2-67.3
	c-9.2-45.1-18.6-90.3-26.7-135.6c-4.6-25.7-9.5-51.3-13.5-77.1C94.7,46.8,90.1,47.4,90.4,50.1L90.4,50.1z"/>
<path class="st0" d="M18.5,133.9c-11-13-12.5-30.6-8.2-46.7c4.4-16.5,14.4-29.7,27.2-40.7c25.7-22.2,64.2-39.1,98.6-32.7
	c15.7,2.9,30.8,10.3,41.2,22.8c8.6,10.4,12,23.4,11.2,36.7c-0.8,12.7-6.7,25.1-14,35.3c-3.8,5.1-8.3,9.8-13.3,13.8
	c0.3-0.2-3,2.3-2.1,1.7c-1.4,1-2.8,2-4.2,2.9c-3.1,2-6.4,3.7-9.9,5.2c-15.2,6.4-32.3,7.6-48.5,5.6c-9.2-1.1-18.3-3.1-27.1-6
	c-8.5-2.8-17.7-5.1-25.5-9.3c-4.5-2.4-9,3.3-5.4,7c6.7,7.1,12.9,14,21.4,19.1c8.3,5,17.2,8.9,26.5,11.6c18.6,5.2,39.9,5.1,58.3-1.1
	c17.6-5.9,32.4-16.2,43.1-31.5c9.6-13.8,15-30,15.8-46.7c0.8-15.5-2.2-31.2-10.3-44.5c-9.4-15.5-25-26.3-42.1-31.9
	C112-8.4,68,8.1,36.5,32.3C20.2,44.8,5.2,62.4,1.2,83.1c-3.6,19,0.8,39.5,14.2,53.8C17.4,139,20.3,135.9,18.5,133.9z"/>
<text transform="matrix(1 0 0 1 171.71 253.77)" class="st0 st1 st2">au.</text>
</svg>
