<?xml version="1.0" encoding="utf-8"?>
<!-- Generator: Adobe Illustrator 16.0.3, SVG Export Plug-In . SVG Version: 6.00 Build 0)  -->
<!DOCTYPE svg PUBLIC "-//W3C//DTD SVG 1.1//EN" "http://www.w3.org/Graphics/SVG/1.1/DTD/svg11.dtd">
<svg version="1.1" id="Capa_1" xmlns="http://www.w3.org/2000/svg" xmlns:xlink="http://www.w3.org/1999/xlink" x="0px" y="0px"
	 width="500px" height="500px" viewBox="0 0 500 500" enable-background="new 0 0 500 500" xml:space="preserve">
<path d="M460,155.337c0-14.531-8.008-28.086-20.898-35.313L270.703,25.376c-12.773-7.148-28.633-7.148-41.406,0L60.898,120.024
	C48.008,127.251,40,140.806,40,155.337v189.297c0,14.531,8.008,28.086,20.898,35.313l168.398,94.648
	c6.406,3.594,13.555,5.391,20.703,5.391s14.297-1.797,20.703-5.391l168.398-94.648C451.992,372.72,460,359.165,460,344.634
	 M250,369.985c-66.172,0-120-53.828-120-120s53.828-120,120-120c37.813,0,72.734,17.539,95.43,47.422l-43.828,25.352
	c-13.164-14.414-31.875-22.773-51.602-22.773c-38.594,0-70,31.406-70,70s31.406,70,70,70c19.727,0,38.438-8.359,51.602-22.773
	l43.828,25.352C322.734,352.446,287.813,369.985,250,369.985z"/>
</svg>
